<?xml version="1.0" standalone="no"?>
<!DOCTYPE svg PUBLIC "-//W3C//DTD SVG 20010904//EN"
 "http://www.w3.org/TR/2001/REC-SVG-20010904/DTD/svg10.dtd">
<svg version="1.0" xmlns="http://www.w3.org/2000/svg"
 width="138.000000pt" height="138.000000pt" viewBox="0 0 138.000000 138.000000"
 preserveAspectRatio="xMidYMid meet">
<metadata>
Created by potrace 1.11, written by Peter Selinger 2001-2013
</metadata>
<g transform="translate(0.000000,138.000000) scale(0.100000,-0.100000)"
fill="#000000" stroke="none">
<path d="M510 1284 c-78 -16 -208 -79 -270 -130 -109 -91 -197 -236 -225 -371
-18 -87 -13 -234 11 -313 80 -268 316 -453 592 -466 120 -5 214 14 317 65 344
170 467 589 269 917 -33 55 -35 61 -23 96 22 67 -3 123 -70 158 -28 14 -104 5
-121 -15 -9 -11 -22 -8 -74 16 -118 55 -270 71 -406 43z"/>
</g>
</svg>
